<svg xmlns="http://www.w3.org/2000/svg" viewBox="0 0 1280 800" fill="none">
  <rect width="1280" height="800" fill="#081726"/>
  <rect width="1280" height="800" fill="url(#bg)"/>
  <g opacity=".26" stroke="#7EE7FF" stroke-width="1">
    <path d="M0 112H1280M0 224H1280M0 336H1280M0 448H1280M0 560H1280M0 672H1280"/>
    <path d="M160 0V800M320 0V800M480 0V800M640 0V800M800 0V800M960 0V800M1120 0V800"/>
  </g>
  <circle cx="300" cy="250" r="210" fill="url(#glowA)"/>
  <circle cx="960" cy="520" r="240" fill="url(#glowB)"/>
  <path d="M238 580c138-126 268-188 390-188 124 0 240 34 414 134" stroke="#8AF4FF" stroke-width="20" stroke-linecap="round" opacity=".55"/>
  <path d="M224 634c126-92 242-138 354-138 112 0 228 24 456 110" stroke="#45A6FF" stroke-width="10" stroke-linecap="round" opacity=".55"/>
  <rect x="188" y="154" width="236" height="138" rx="24" fill="rgba(10,22,36,.54)" stroke="#78DFFF"/>
  <rect x="856" y="426" width="244" height="144" rx="28" fill="rgba(10,22,36,.5)" stroke="#59B7FF"/>
  <rect x="896" y="218" width="122" height="122" rx="61" fill="rgba(116,243,255,.18)" stroke="#8AF4FF"/>
  <defs>
    <linearGradient id="bg" x1="76" y1="48" x2="1210" y2="780" gradientUnits="userSpaceOnUse">
      <stop stop-color="#0A1C2E"/>
      <stop offset=".48" stop-color="#0C2238"/>
      <stop offset="1" stop-color="#091624"/>
    </linearGradient>
    <radialGradient id="glowA" cx="0" cy="0" r="1" gradientUnits="userSpaceOnUse" gradientTransform="translate(300 250) rotate(90) scale(210)">
      <stop stop-color="#7EF7FF" stop-opacity=".44"/>
      <stop offset="1" stop-color="#7EF7FF" stop-opacity="0"/>
    </radialGradient>
    <radialGradient id="glowB" cx="0" cy="0" r="1" gradientUnits="userSpaceOnUse" gradientTransform="translate(960 520) rotate(90) scale(240)">
      <stop stop-color="#4FA8FF" stop-opacity=".38"/>
      <stop offset="1" stop-color="#4FA8FF" stop-opacity="0"/>
    </radialGradient>
  </defs>
</svg>
