<svg xmlns="http://www.w3.org/2000/svg" viewBox="0 0 1280 800" fill="none">
  <rect width="1280" height="800" fill="#06121E"/>
  <rect width="1280" height="800" fill="url(#bg)"/>
  <g opacity=".24">
    <ellipse cx="364" cy="404" rx="240" ry="120" stroke="#6FF2FF" stroke-width="2"/>
    <ellipse cx="640" cy="404" rx="340" ry="170" stroke="#6FF2FF" stroke-width="2"/>
    <ellipse cx="928" cy="404" rx="244" ry="122" stroke="#6FF2FF" stroke-width="2"/>
  </g>
  <circle cx="640" cy="404" r="94" fill="url(#core)" stroke="#A1FBFF"/>
  <path d="M320 214h210c32 0 58 26 58 58v0c0 32-26 58-58 58H320c-32 0-58-26-58-58v0c0-32 26-58 58-58Z" fill="rgba(9,24,39,.72)" stroke="#68D7FF"/>
  <path d="M748 180h232c34 0 62 28 62 62v0c0 34-28 62-62 62H748c-34 0-62-28-62-62v0c0-34 28-62 62-62Z" fill="rgba(9,24,39,.72)" stroke="#68D7FF"/>
  <path d="M776 514h252c38 0 68 30 68 68v0c0 38-30 68-68 68H776c-38 0-68-30-68-68v0c0-38 30-68 68-68Z" fill="rgba(9,24,39,.72)" stroke="#4FA8FF"/>
  <path d="M182 482h226c34 0 62 28 62 62v0c0 34-28 62-62 62H182c-34 0-62-28-62-62v0c0-34 28-62 62-62Z" fill="rgba(9,24,39,.72)" stroke="#4FA8FF"/>
  <defs>
    <linearGradient id="bg" x1="86" y1="74" x2="1172" y2="750" gradientUnits="userSpaceOnUse">
      <stop stop-color="#091A2B"/>
      <stop offset=".56" stop-color="#0D2640"/>
      <stop offset="1" stop-color="#08131F"/>
    </linearGradient>
    <radialGradient id="core" cx="0" cy="0" r="1" gradientUnits="userSpaceOnUse" gradientTransform="translate(640 404) rotate(90) scale(94)">
      <stop stop-color="#BFFFFF"/>
      <stop offset=".4" stop-color="#57DCFF" stop-opacity=".86"/>
      <stop offset="1" stop-color="#57DCFF" stop-opacity=".2"/>
    </radialGradient>
  </defs>
</svg>
